:SAMPLES-PER-SECOND 30
:FULLY-SPECIFIED
:DEGREES
515
root  -38.3022 39.8099 11.3887 -6.7489 39.4127 -2.63538
RightUpLeg  -17.4423 -4.15752 -9.30558
RightLeg  58.223 -2.45423 -4.72611
RightFoot  11.1939 -0.110782 0.942359
RightToes  -5.8209e-011 0 -3.6325e-017
Spine  10.3339 -1.37625 -1.02584
Spine1  5.07335 -1.64961 -0.935752
HEad  6.3683 -14.2339 -64.1056
LeftShoulder1  9.3323 -12.8013 -49.9653
LeftArm  1.81499 5.48403 -27.0953
LeftForeArm  24.0479 -19.4246 -4.52209
LeftHand  -0.244104 0.0205437 5.32207
RightShoulder  6.2968 10.0468 40.3134
RightArm  7.15314 -15.5084 33.3485
RightForeArm  9.15428 16.7556 6.13871
RightHand  -0.408456 -0.991252 -10.7341
LeftUpLeg  -0.949177 2.4608 -10.3592
LeftLeg  12.8445 21.0498 -0.606428
LeftFoot  -11.8745 0.13975 14.4591
LeftToes  1.76439e-010 -1.07097e-011 2.32476e-011
516
root  -37.7224 39.9646 12.2686 -7.72119 43.3244 -3.89703
RightUpLeg  -19.4603 -3.03612 -8.5004
RightLeg  50.8473 -3.99901 -5.59324
RightFoot  9.19522 -0.00879621 0.431486
RightToes  -5.8209e-011 0 -3.6325e-017
Spine  10.7863 -1.86183 -0.932374
Spine1  4.94369 -2.36774 0.238343
HEad  9.30183 -12.2292 -58.5162
LeftShoulder1  9.52584 -13.0064 -50.3647
LeftArm  5.35329 1.98909 -29.3187
LeftForeArm  24.7552 -25.0593 -3.9095
LeftHand  -0.244104 0.0205437 5.32207
RightShoulder  6.29824 10.1188 40.0906
RightArm  6.16467 -14.8066 32.7596
RightForeArm  7.25514 16.141 6.44049
RightHand  -0.384047 -1.60471 -11.6368
LeftUpLeg  2.00151 1.89206 -9.43618
LeftLeg  11.3068 17.6979 -1.42144
LeftFoot  -12.3149 0.198714 14.5215
LeftToes  1.76439e-010 -1.07097e-011 2.32476e-011
517
root  -37.114 39.9742 13.181 -8.43762 47.1521 -4.77789
RightUpLeg  -20.245 -2.86222 -8.20031
RightLeg  40.9372 -5.66559 -5.5077
RightFoot  7.44224 -0.363435 2.49678
RightToes  -5.8209e-011 0 -3.6325e-017
Spine  11.0578 -2.26072 -1.36881
Spine1  4.81306 -3.03346 1.25069
HEad  12.3531 -13.4838 -60.1894
LeftShoulder1  9.74874 -13.2439 -50.8088
LeftArm  5.65512 -1.03348 -31.0276
LeftForeArm  29.409 -30.1351 -4.93249
LeftHand  -0.244104 0.0205437 5.32207
RightShoulder  6.27203 10.0903 40
RightArm  4.63487 -13.6979 31.9404
RightForeArm  7.49846 14.9644 6.80718
RightHand  -0.384089 -1.75024 -12.0923
LeftUpLeg  4.17915 2.08276 -8.70265
LeftLeg  11.4041 13.8164 -1.5578
LeftFoot  -13.677 0.381642 14.5943
LeftToes  1.76439e-010 -1.07097e-011 2.32476e-011
518
root  -36.4134 39.8728 14.1568 -8.55402 50.1579 -5.01442
RightUpLeg  -20.2301 -3.89355 -7.7548
RightLeg  29.0632 -5.84504 -3.86021
RightFoot  6.75778 -0.567447 3.84494
RightToes  -5.8209e-011 0 -3.6325e-017
Spine  10.7302 -2.37082 -1.90692
Spine1  4.90428 -3.25147 1.72001
HEad  15.3185 -14.6202 -61.8017
LeftShoulder1  9.87731 -13.4366 -50.893
LeftArm  6.05493 -3.44769 -32.8442
LeftForeArm  33.4083 -34.4093 -5.74184
LeftHand  -0.244104 0.0205437 5.32207
RightShoulder  6.24672 10.0598 39.9217
RightArm  2.37732 -12.5336 31.165
RightForeArm  10.0875 13.3638 7.07528
RightHand  -0.414632 -1.33843 -11.7937
LeftUpLeg  5.94366 2.56303 -8.10718
LeftLeg  12.2179 10.4874 -1.68431
LeftFoot  -15.6357 0.638094 14.4182
LeftToes  1.76439e-010 -1.07097e-011 2.32476e-011
519
root  -35.6082 39.7876 15.143 -8.35419 52.1939 -5.01927
RightUpLeg  -19.5686 -6.45377 -6.60743
RightLeg  15.8289 -2.8287 -0.82526
RightFoot  6.47761 -0.800842 5.38735
RightToes  -5.8209e-011 0 -3.6325e-017
Spine  9.91216 -2.28355 -1.93098
Spine1  5.32317 -3.11318 1.90249
HEad  18.0112 -15.58 -63.3398
LeftShoulder1  9.88369 -13.5078 -50.7155
LeftArm  5.89434 -5.21021 -34.4332
LeftForeArm  36.3135 -37.6812 -6.43151
LeftHand  -0.244104 0.0205437 5.32207
RightShoulder  6.26134 10.1091 39.865
RightArm  -0.113288 -11.4306 30.5104
RightForeArm  12.8961 11.6114 7.20682
RightHand  -0.45178 -0.773104 -11.3289
LeftUpLeg  8.06082 3.02826 -7.39529
LeftLeg  12.0498 7.91947 -2.15588
LeftFoot  -16.9731 0.796579 14.0312
LeftToes  1.76439e-010 -1.07097e-011 2.32476e-011
520
root  -34.7432 39.6477 16.1421 -8.30219 54.0018 -4.99416
RightUpLeg  -18.1574 -7.98407 -6.08213
RightLeg  3.43141 -0.180407 2.4601
RightFoot  5.77012 -1.32202 9.06099
RightToes  -5.8209e-011 0 -3.6325e-017
Spine  9.2867 -2.24985 -1.80543
Spine1  5.65876 -3.02101 2.01402
HEad  20.4773 -16.7172 -65.1103
LeftShoulder1  9.88711 -13.5185 -50.7014
LeftArm  5.58442 -6.55112 -35.1998
LeftForeArm  37.6034 -39.801 -6.94846
LeftHand  -0.244104 0.0205437 5.32207
RightShoulder  6.29807 10.1704 39.9243
RightArm  -1.90059 -10.3961 29.8799
RightForeArm  13.765 10.2591 7.25016
RightHand  -0.485102 -0.470702 -11.4482
LeftUpLeg  10.426 3.62536 -6.51138
LeftLeg  11.9332 5.26673 -2.58799
LeftFoot  -18.2501 0.913004 13.2545
LeftToes  1.76439e-010 -1.07097e-011 2.32476e-011
521
root  -33.8278 39.3786 17.1811 -8.63 55.9519 -4.93765
RightUpLeg  -16.918 -7.33068 -6.25914
RightLeg  -3.75139 -1.23742 4.7938
RightFoot  4.18248 -1.64197 12.1934
RightToes  -5.8209e-011 0 -3.6325e-017
Spine  9.28096 -2.33587 -1.87596
Spine1  5.64659 -3.09238 2.19779
HEad  22.9314 -18.441 -67.5507
LeftShoulder1  9.93678 -13.5437 -50.8782
LeftArm  5.46646 -7.62799 -35.1929
LeftForeArm  37.4884 -40.5579 -7.17726
LeftHand  -0.244104 0.0205437 5.32207
RightShoulder  6.31609 10.1826 40.0104
RightArm  -2.90481 -9.45457 29.3504
RightForeArm  12.988 9.57625 7.26152
RightHand  -0.527741 -0.328199 -12.116
LeftUpLeg  12.8453 4.54246 -5.47144
LeftLeg  12.8888 2.24198 -2.69577
LeftFoot  -20.2507 1.07189 12.1454
LeftToes  1.76439e-010 -1.07097e-011 2.32476e-011
